<?xml version="1.0" encoding="UTF-8"?>
<!DOCTYPE svg PUBLIC "-//W3C//DTD SVG 1.1//EN" "http://www.w3.org/Graphics/SVG/1.1/DTD/svg11.dtd">
<svg xmlns="http://www.w3.org/2000/svg" version="1.1" width="2362px" height="2362px" style="shape-rendering:geometricPrecision; text-rendering:geometricPrecision; image-rendering:optimizeQuality; fill-rule:evenodd; clip-rule:evenodd" xmlns:xlink="http://www.w3.org/1999/xlink">
<g><path style="opacity:0.989" fill="#1f5129" d="M 1230.5,449.5 C 1236.5,449.5 1242.5,449.5 1248.5,449.5C 1248.5,450.5 1248.5,451.5 1248.5,452.5C 1262.22,454.882 1275.89,457.549 1289.5,460.5C 1289.5,461.5 1289.5,462.5 1289.5,463.5C 1292.57,463.183 1295.57,463.516 1298.5,464.5C 1309.94,468.485 1321.61,471.485 1333.5,473.5C 1333.5,474.5 1333.5,475.5 1333.5,476.5C 1343.95,478.82 1354.29,481.487 1364.5,484.5C 1364.5,485.5 1364.5,486.5 1364.5,487.5C 1374.01,489.59 1383.34,492.256 1392.5,495.5C 1392.5,496.5 1392.5,497.5 1392.5,498.5C 1394.92,498.192 1397.26,498.526 1399.5,499.5C 1407.53,502.519 1415.53,505.519 1423.5,508.5C 1423.5,509.5 1423.5,510.5 1423.5,511.5C 1425.92,511.192 1428.26,511.526 1430.5,512.5C 1435.88,515.651 1441.54,517.984 1447.5,519.5C 1447.5,520.5 1447.5,521.5 1447.5,522.5C 1454.83,525.167 1462.17,527.833 1469.5,530.5C 1469.5,531.5 1469.5,532.5 1469.5,533.5C 1476,536.573 1482.67,539.573 1489.5,542.5C 1490.85,543.524 1491.52,544.857 1491.5,546.5C 1497.07,547.595 1502.07,549.928 1506.5,553.5C 1507.85,554.524 1508.52,555.857 1508.5,557.5C 1510.29,557.215 1511.95,557.548 1513.5,558.5C 1516.17,560.5 1518.83,562.5 1521.5,564.5C 1523.05,565.452 1524.71,565.785 1526.5,565.5C 1527.87,569.865 1530.87,572.532 1535.5,573.5C 1537.69,575.007 1539.02,577.007 1539.5,579.5C 1540.98,579.238 1542.31,579.571 1543.5,580.5C 1546.9,583.566 1550.56,586.233 1554.5,588.5C 1555.85,589.524 1556.52,590.857 1556.5,592.5C 1560.36,594.341 1563.69,597.008 1566.5,600.5C 1567.39,601.325 1567.72,602.325 1567.5,603.5C 1569.29,603.215 1570.95,603.548 1572.5,604.5C 1574.98,607.664 1577.98,609.998 1581.5,611.5C 1585.33,616.497 1588.67,621.83 1591.5,627.5C 1596.53,629.53 1599.86,633.197 1601.5,638.5C 1605.99,640.985 1608.99,644.652 1610.5,649.5C 1612.01,651.69 1614.01,653.024 1616.5,653.5C 1618.93,659.381 1621.93,665.048 1625.5,670.5C 1626.45,672.045 1626.79,673.712 1626.5,675.5C 1627.5,675.5 1628.5,675.5 1629.5,675.5C 1632.17,682.846 1634.84,690.179 1637.5,697.5C 1638.5,697.5 1639.5,697.5 1640.5,697.5C 1643.74,706.658 1646.41,715.991 1648.5,725.5C 1649.5,725.5 1650.5,725.5 1651.5,725.5C 1652.99,736.506 1654.65,747.506 1656.5,758.5C 1657.96,778.887 1657.63,799.221 1655.5,819.5C 1650.99,818.609 1647.33,816.275 1644.5,812.5C 1643.31,811.571 1641.98,811.238 1640.5,811.5C 1640.5,810.5 1640.5,809.5 1640.5,808.5C 1506.9,807.175 1373.23,806.508 1239.5,806.5C 1106.09,806.507 972.753,807.173 839.5,808.5C 839.5,809.5 839.5,810.5 839.5,811.5C 837.712,811.215 836.045,811.548 834.5,812.5C 832.5,814.5 830.5,816.5 828.5,818.5C 826.955,819.452 825.288,819.785 823.5,819.5C 822.138,808.031 820.805,796.531 819.5,785C 821.033,767.427 823.033,749.927 825.5,732.5C 826.5,732.5 827.5,732.5 828.5,732.5C 830.811,722.079 833.477,711.745 836.5,701.5C 837.5,701.5 838.5,701.5 839.5,701.5C 841.593,693.312 844.26,685.312 847.5,677.5C 849.143,677.52 850.476,676.853 851.5,675.5C 853.655,669.857 856.322,664.523 859.5,659.5C 860.524,658.147 861.857,657.48 863.5,657.5C 865.076,653.883 866.743,650.216 868.5,646.5C 870.595,644.215 872.928,642.215 875.5,640.5C 877.688,634.974 881.355,630.64 886.5,627.5C 888.812,621.524 892.812,617.191 898.5,614.5C 900.341,610.643 903.008,607.309 906.5,604.5C 907.325,603.614 908.325,603.281 909.5,603.5C 909.48,601.857 910.147,600.524 911.5,599.5C 917.593,596.437 922.593,592.104 926.5,586.5C 931.79,584.771 935.457,581.438 937.5,576.5C 938.978,576.762 940.311,576.429 941.5,575.5C 944.237,573.095 947.237,571.095 950.5,569.5C 951.853,568.476 952.52,567.143 952.5,565.5C 956.422,565.594 959.422,563.928 961.5,560.5C 964.418,559.13 967.418,558.13 970.5,557.5C 970.48,555.857 971.147,554.524 972.5,553.5C 977.165,550.333 982.165,547.999 987.5,546.5C 987.5,545.5 987.5,544.5 987.5,543.5C 994.85,540.151 1002.18,536.818 1009.5,533.5C 1009.5,532.5 1009.5,531.5 1009.5,530.5C 1016.82,527.841 1024.15,525.175 1031.5,522.5C 1031.5,521.5 1031.5,520.5 1031.5,519.5C 1038.82,516.841 1046.15,514.175 1053.5,511.5C 1053.5,510.5 1053.5,509.5 1053.5,508.5C 1055.92,508.808 1058.26,508.474 1060.5,507.5C 1068.25,503.717 1076.25,500.717 1084.5,498.5C 1084.5,497.5 1084.5,496.5 1084.5,495.5C 1094.5,492.833 1104.5,490.167 1114.5,487.5C 1114.5,486.5 1114.5,485.5 1114.5,484.5C 1124.75,481.478 1135.08,478.811 1145.5,476.5C 1145.5,475.5 1145.5,474.5 1145.5,473.5C 1157.29,471.137 1168.96,468.137 1180.5,464.5C 1183.43,463.516 1186.43,463.183 1189.5,463.5C 1189.5,462.5 1189.5,461.5 1189.5,460.5C 1203.11,457.55 1216.78,454.883 1230.5,452.5C 1230.5,451.5 1230.5,450.5 1230.5,449.5 Z"/></g>
<g><path style="opacity:0.91" fill="#4d9f46" d="M 845.5,813.5 C 1108.17,813.167 1370.83,813.5 1633.5,814.5C 1635.83,815.167 1638.17,815.833 1640.5,816.5C 1642.16,818.329 1644.16,819.663 1646.5,820.5C 1647.85,821.524 1648.52,822.857 1648.5,824.5C 1650.14,824.48 1651.48,825.147 1652.5,826.5C 1657.76,837.116 1658.76,848.116 1655.5,859.5C 1653.17,859.5 1650.83,859.5 1648.5,859.5C 1648.77,857.179 1648.1,855.179 1646.5,853.5C 1644.16,852.663 1642.16,851.329 1640.5,849.5C 1638.17,848.833 1635.83,848.167 1633.5,847.5C 1370.83,846.167 1108.17,846.167 845.5,847.5C 839.078,848.662 833.744,851.662 829.5,856.5C 828.614,857.325 828.281,858.325 828.5,859.5C 826.833,859.5 825.167,859.5 823.5,859.5C 821.528,851.589 821.195,843.589 822.5,835.5C 823.87,832.582 824.87,829.582 825.5,826.5C 826.675,826.719 827.675,826.386 828.5,825.5C 830.215,822.928 832.215,820.595 834.5,818.5C 838.544,817.175 842.211,815.508 845.5,813.5 Z"/></g>
<g><path style="opacity:0.919" fill="#1f5029" d="M 795.5,861.5 C 1091.5,861.167 1387.5,861.5 1683.5,862.5C 1688.01,864.76 1692.67,866.426 1697.5,867.5C 1699.76,871.118 1702.09,874.785 1704.5,878.5C 1706.32,881.968 1707.32,885.635 1707.5,889.5C 1708.5,889.5 1709.5,889.5 1710.5,889.5C 1710.5,894.833 1710.5,900.167 1710.5,905.5C 1709.5,905.5 1708.5,905.5 1707.5,905.5C 1706.83,908.167 1706.17,910.833 1705.5,913.5C 1704.17,913.5 1702.83,913.5 1701.5,913.5C 1700.94,909.275 1698.61,906.609 1694.5,905.5C 1694.5,904.5 1694.5,903.5 1694.5,902.5C 1691.66,902.083 1688.99,901.083 1686.5,899.5C 1388.83,898.167 1091.17,898.167 793.5,899.5C 790.582,900.87 787.582,901.87 784.5,902.5C 784.719,903.675 784.386,904.675 783.5,905.5C 781.833,906.833 780.167,908.167 778.5,909.5C 777.571,910.689 777.238,912.022 777.5,913.5C 775.508,913.672 773.842,913.005 772.5,911.5C 768.231,899.576 768.898,887.909 774.5,876.5C 776.653,873.662 779.32,871.662 782.5,870.5C 782.48,868.857 783.147,867.524 784.5,866.5C 788.419,864.888 792.086,863.222 795.5,861.5 Z"/></g>
<g><path style="opacity:0.986" fill="#4d9f45" d="M 830.5,911.5 C 830.5,1191.83 830.5,1472.17 830.5,1752.5C 827.5,1752.5 824.5,1752.5 821.5,1752.5C 821.5,1751.5 821.5,1750.5 821.5,1749.5C 807.477,1746.98 793.477,1744.31 779.5,1741.5C 779.5,1578.83 779.5,1416.17 779.5,1253.5C 780.5,1253.5 781.5,1253.5 782.5,1253.5C 782.5,1221.17 782.5,1188.83 782.5,1156.5C 781.5,1156.5 780.5,1156.5 779.5,1156.5C 778.034,1147.44 775.367,1138.77 771.5,1130.5C 771.116,1128.07 770.449,1125.74 769.5,1123.5C 768.5,1123.5 767.5,1123.5 766.5,1123.5C 765.438,1119.41 763.104,1116.08 759.5,1113.5C 758.614,1112.68 758.281,1111.68 758.5,1110.5C 752.931,1106.95 746.931,1104.28 740.5,1102.5C 740.5,1101.5 740.5,1100.5 740.5,1099.5C 733.42,1096.94 726.087,1095.61 718.5,1095.5C 715.742,1094.18 712.576,1093.52 709,1093.5C 705.424,1093.52 702.258,1094.18 699.5,1095.5C 693.206,1095.62 687.206,1096.95 681.5,1099.5C 681.5,1100.5 681.5,1101.5 681.5,1102.5C 676.284,1103.19 671.951,1105.52 668.5,1109.5C 666.955,1110.45 665.288,1110.79 663.5,1110.5C 661.998,1114.02 659.664,1117.02 656.5,1119.5C 655.201,1121.76 654.201,1124.09 653.5,1126.5C 652.5,1126.5 651.5,1126.5 650.5,1126.5C 650.181,1129.81 648.847,1132.47 646.5,1134.5C 645.88,1132.02 644.88,1132.02 643.5,1134.5C 642.526,1136.74 642.192,1139.08 642.5,1141.5C 641.5,1141.5 640.5,1141.5 639.5,1141.5C 637.517,1328.78 636.85,1516.12 637.5,1703.5C 622.244,1701.15 607.244,1697.81 592.5,1693.5C 591.5,1452.5 591.167,1211.5 591.5,970.5C 605.44,967.515 619.44,964.848 633.5,962.5C 633.5,961.5 633.5,960.5 633.5,959.5C 648.137,956.692 662.804,954.025 677.5,951.5C 677.5,950.5 677.5,949.5 677.5,948.5C 692.813,945.716 708.147,943.049 723.5,940.5C 723.5,939.5 723.5,938.5 723.5,937.5C 737.833,934.833 752.167,932.167 766.5,929.5C 766.5,928.5 766.5,927.5 766.5,926.5C 784.197,923.308 801.863,919.975 819.5,916.5C 819.5,915.5 819.5,914.5 819.5,913.5C 823.413,913.813 827.079,913.147 830.5,911.5 Z"/></g>
<g><path style="opacity:0.086" fill="#51a846" d="M 830.5,911.5 C 831.833,1051.33 832.5,1191.5 832.5,1332C 832.5,1472.5 831.833,1612.67 830.5,1752.5C 830.5,1472.17 830.5,1191.83 830.5,911.5 Z"/></g>
<g><path style="opacity:0.992" fill="#1f5029" d="M 1500.5,1752.5 C 1500.5,1601.5 1500.5,1450.5 1500.5,1299.5C 1499.5,1299.5 1498.5,1299.5 1497.5,1299.5C 1497.73,1291.02 1496.73,1282.69 1494.5,1274.5C 1493.61,1275.32 1493.28,1276.32 1493.5,1277.5C 1492.83,1277.5 1492.17,1277.5 1491.5,1277.5C 1491.5,1275.83 1491.5,1274.17 1491.5,1272.5C 1491.84,1270.52 1491.18,1269.18 1489.5,1268.5C 1489.5,1267.17 1489.5,1265.83 1489.5,1264.5C 1489.5,1262.83 1489.5,1261.17 1489.5,1259.5C 1488.5,1259.5 1487.5,1259.5 1486.5,1259.5C 1485.86,1254.27 1484.53,1249.27 1482.5,1244.5C 1482.92,1242.22 1482.26,1240.55 1480.5,1239.5C 1479.83,1236.83 1479.17,1234.17 1478.5,1231.5C 1477.5,1231.5 1476.5,1231.5 1475.5,1231.5C 1475.56,1226.7 1474.22,1222.36 1471.5,1218.5C 1471.71,1216.82 1471.05,1215.82 1469.5,1215.5C 1467.33,1212.16 1466,1208.49 1465.5,1204.5C 1463.82,1204.71 1462.82,1204.05 1462.5,1202.5C 1462.5,1201.17 1461.83,1200.5 1460.5,1200.5C 1459.83,1199.17 1459.17,1197.83 1458.5,1196.5C 1458.5,1195.17 1457.83,1194.5 1456.5,1194.5C 1456.17,1192.68 1455.5,1191.01 1454.5,1189.5C 1454.18,1187.95 1453.18,1187.29 1451.5,1187.5C 1449.75,1185.41 1448.41,1183.08 1447.5,1180.5C 1447.5,1179.17 1446.83,1178.5 1445.5,1178.5C 1440.69,1173.16 1435.69,1167.83 1430.5,1162.5C 1429.68,1161.61 1428.68,1161.28 1427.5,1161.5C 1427.72,1160.32 1427.39,1159.32 1426.5,1158.5C 1422.06,1153.72 1417.4,1149.39 1412.5,1145.5C 1412.5,1144.17 1411.83,1143.5 1410.5,1143.5C 1408.17,1142.17 1405.83,1140.83 1403.5,1139.5C 1403.5,1138.17 1402.83,1137.5 1401.5,1137.5C 1399.94,1136.53 1398.61,1135.2 1397.5,1133.5C 1395.06,1132.59 1392.73,1131.59 1390.5,1130.5C 1390.5,1129.17 1389.83,1128.5 1388.5,1128.5C 1387.17,1127.83 1385.83,1127.17 1384.5,1126.5C 1384.5,1125.5 1384.5,1124.5 1384.5,1123.5C 1383.5,1123.5 1382.5,1123.5 1381.5,1123.5C 1373.21,1119.4 1364.55,1116.07 1355.5,1113.5C 1355.71,1111.82 1355.05,1110.82 1353.5,1110.5C 1352.82,1108.82 1351.48,1108.16 1349.5,1108.5C 1346.44,1108.07 1343.44,1107.41 1340.5,1106.5C 1339.45,1104.74 1337.78,1104.08 1335.5,1104.5C 1334.83,1104.5 1334.17,1104.5 1333.5,1104.5C 1332.82,1102.82 1331.48,1102.16 1329.5,1102.5C 1328.83,1102.5 1328.17,1102.5 1327.5,1102.5C 1327.5,1101.5 1327.5,1100.5 1327.5,1099.5C 1325.17,1099.5 1322.83,1099.5 1320.5,1099.5C 1318.5,1099.5 1316.5,1099.5 1314.5,1099.5C 1313.45,1097.74 1311.78,1097.08 1309.5,1097.5C 1306.5,1097.5 1303.5,1097.5 1300.5,1097.5C 1298.36,1095.63 1295.7,1094.96 1292.5,1095.5C 1288.83,1095.5 1285.17,1095.5 1281.5,1095.5C 1281.5,1094.83 1281.5,1094.17 1281.5,1093.5C 1284.25,1093.81 1286.91,1093.48 1289.5,1092.5C 1282.33,1092.17 1275.17,1091.83 1268,1091.5C 1260.47,1091.5 1253.3,1092.17 1246.5,1093.5C 1246.5,1094.17 1246.5,1094.83 1246.5,1095.5C 1244.83,1095.5 1243.17,1095.5 1241.5,1095.5C 1238.3,1094.96 1235.64,1095.63 1233.5,1097.5C 1231.17,1097.5 1228.83,1097.5 1226.5,1097.5C 1222.99,1096.95 1219.99,1097.61 1217.5,1099.5C 1216.17,1099.5 1214.83,1099.5 1213.5,1099.5C 1211.83,1099.5 1210.17,1099.5 1208.5,1099.5C 1208.5,1100.5 1208.5,1101.5 1208.5,1102.5C 1207.83,1102.5 1207.17,1102.5 1206.5,1102.5C 1204.52,1102.16 1203.18,1102.82 1202.5,1104.5C 1201.17,1104.5 1199.83,1104.5 1198.5,1104.5C 1196.22,1104.08 1194.55,1104.74 1193.5,1106.5C 1192.83,1106.5 1192.17,1106.5 1191.5,1106.5C 1189.52,1106.16 1188.18,1106.82 1187.5,1108.5C 1184.44,1108.93 1181.44,1109.59 1178.5,1110.5C 1178.5,1111.5 1178.5,1112.5 1178.5,1113.5C 1176.08,1113.19 1173.74,1113.53 1171.5,1114.5C 1163.91,1117.14 1156.58,1120.14 1149.5,1123.5C 1149.5,1124.5 1149.5,1125.5 1149.5,1126.5C 1143.51,1128.49 1137.85,1131.16 1132.5,1134.5C 1130.95,1134.82 1130.29,1135.82 1130.5,1137.5C 1126.02,1139.91 1121.69,1142.57 1117.5,1145.5C 1116.5,1145.5 1115.5,1145.5 1114.5,1145.5C 1114.5,1146.5 1114.5,1147.5 1114.5,1148.5C 1110.46,1152.2 1106.13,1155.54 1101.5,1158.5C 1099.95,1158.82 1099.29,1159.82 1099.5,1161.5C 1093.83,1164.5 1089.5,1168.83 1086.5,1174.5C 1085.17,1174.5 1084.5,1175.17 1084.5,1176.5C 1083.74,1178.93 1082.07,1180.26 1079.5,1180.5C 1077.91,1183.76 1075.91,1186.76 1073.5,1189.5C 1072.17,1189.5 1071.5,1190.17 1071.5,1191.5C 1071.5,1192.5 1071.5,1193.5 1071.5,1194.5C 1069.86,1194.48 1068.52,1195.15 1067.5,1196.5C 1066.18,1199.47 1064.51,1202.13 1062.5,1204.5C 1060.95,1204.82 1060.29,1205.82 1060.5,1207.5C 1059.5,1208.83 1058.5,1210.17 1057.5,1211.5C 1056.17,1211.5 1055.5,1212.17 1055.5,1213.5C 1053.73,1217.94 1051.73,1222.27 1049.5,1226.5C 1048.5,1226.5 1047.5,1226.5 1046.5,1226.5C 1046.5,1227.5 1046.5,1228.5 1046.5,1229.5C 1045.17,1232.83 1043.83,1236.17 1042.5,1239.5C 1040.74,1240.55 1040.08,1242.22 1040.5,1244.5C 1037.78,1248.36 1036.44,1252.7 1036.5,1257.5C 1035.5,1257.5 1034.5,1257.5 1033.5,1257.5C 1033.5,1258.83 1033.5,1260.17 1033.5,1261.5C 1031.74,1262.55 1031.08,1264.22 1031.5,1266.5C 1031.5,1267.17 1031.5,1267.83 1031.5,1268.5C 1029.82,1269.18 1029.16,1270.52 1029.5,1272.5C 1029.5,1273.17 1029.5,1273.83 1029.5,1274.5C 1027.74,1275.55 1027.08,1277.22 1027.5,1279.5C 1027.5,1281.5 1027.5,1283.5 1027.5,1285.5C 1025.74,1286.55 1025.08,1288.22 1025.5,1290.5C 1025.5,1291.17 1025.5,1291.83 1025.5,1292.5C 1024.5,1292.5 1023.5,1292.5 1022.5,1292.5C 1022.5,1294.83 1022.5,1297.17 1022.5,1299.5C 1022.5,1302.17 1022.5,1304.83 1022.5,1307.5C 1021.83,1307.5 1021.17,1307.5 1020.5,1307.5C 1020.76,1306.02 1020.43,1304.69 1019.5,1303.5C 1018.83,1307.17 1018.17,1310.83 1017.5,1314.5C 1016.5,1460.5 1016.17,1606.5 1016.5,1752.5C 956.5,1752.5 896.5,1752.5 836.5,1752.5C 836.5,1472.17 836.5,1191.83 836.5,911.5C 1116.83,911.5 1397.17,911.5 1677.5,911.5C 1677.5,1191.83 1677.5,1472.17 1677.5,1752.5C 1618.5,1752.5 1559.5,1752.5 1500.5,1752.5 Z"/></g>
<g><path style="opacity:0.086" fill="#50a747" d="M 1683.5,911.5 C 1683.5,1191.83 1683.5,1472.17 1683.5,1752.5C 1682.17,1612.67 1681.5,1472.5 1681.5,1332C 1681.5,1191.5 1682.17,1051.33 1683.5,911.5 Z"/></g>
<g><path style="opacity:0.987" fill="#4d9f45" d="M 1683.5,911.5 C 1686.99,912.953 1690.65,913.619 1694.5,913.5C 1694.5,914.5 1694.5,915.5 1694.5,916.5C 1712.2,919.692 1729.86,923.025 1747.5,926.5C 1747.5,927.5 1747.5,928.5 1747.5,929.5C 1762.14,932.308 1776.8,934.975 1791.5,937.5C 1791.5,938.5 1791.5,939.5 1791.5,940.5C 1805.83,943.167 1820.17,945.833 1834.5,948.5C 1834.5,949.5 1834.5,950.5 1834.5,951.5C 1849.2,954.025 1863.86,956.692 1878.5,959.5C 1878.5,960.5 1878.5,961.5 1878.5,962.5C 1893.3,964.456 1907.97,967.123 1922.5,970.5C 1922.5,1212.17 1922.5,1453.83 1922.5,1695.5C 1907.83,1698.17 1893.17,1700.83 1878.5,1703.5C 1878.71,1705.18 1878.05,1706.18 1876.5,1706.5C 1876.83,1520.5 1876.5,1334.5 1875.5,1148.5C 1874.4,1144.82 1873.4,1141.15 1872.5,1137.5C 1870.82,1137.29 1869.82,1137.95 1869.5,1139.5C 1866.36,1134.55 1863.69,1129.22 1861.5,1123.5C 1860.5,1123.5 1859.5,1123.5 1858.5,1123.5C 1857.44,1119.41 1855.1,1116.08 1851.5,1113.5C 1850.61,1112.68 1850.28,1111.68 1850.5,1110.5C 1848.71,1110.79 1847.05,1110.45 1845.5,1109.5C 1842.13,1105.32 1837.8,1102.98 1832.5,1102.5C 1832.5,1101.5 1832.5,1100.5 1832.5,1099.5C 1826.28,1097.68 1819.94,1096.35 1813.5,1095.5C 1810.23,1094.18 1806.57,1093.51 1802.5,1093.5C 1798.43,1093.51 1794.77,1094.18 1791.5,1095.5C 1785.46,1096.69 1779.46,1098.03 1773.5,1099.5C 1773.5,1100.5 1773.5,1101.5 1773.5,1102.5C 1768.28,1103.19 1763.95,1105.52 1760.5,1109.5C 1759.31,1110.43 1757.98,1110.76 1756.5,1110.5C 1756.5,1111.5 1756.5,1112.5 1756.5,1113.5C 1754.01,1113.98 1752.01,1115.31 1750.5,1117.5C 1748.76,1120.55 1747.09,1123.55 1745.5,1126.5C 1744.5,1126.5 1743.5,1126.5 1742.5,1126.5C 1742.5,1127.83 1742.5,1129.17 1742.5,1130.5C 1739.18,1137.46 1736.85,1144.79 1735.5,1152.5C 1734.5,1348.83 1734.17,1545.17 1734.5,1741.5C 1720.56,1744.49 1706.56,1747.15 1692.5,1749.5C 1692.5,1750.5 1692.5,1751.5 1692.5,1752.5C 1689.5,1752.5 1686.5,1752.5 1683.5,1752.5C 1683.5,1472.17 1683.5,1191.83 1683.5,911.5 Z"/></g>
<g><path style="opacity:1" fill="#144423" d="M 1281.5,1093.5 C 1269.83,1093.5 1258.17,1093.5 1246.5,1093.5C 1253.3,1092.17 1260.47,1091.5 1268,1091.5C 1275.17,1091.83 1282.33,1092.17 1289.5,1092.5C 1286.91,1093.48 1284.25,1093.81 1281.5,1093.5 Z"/></g>
<g><path style="opacity:1" fill="#397b3a" d="M 718.5,1095.5 C 712.167,1095.5 705.833,1095.5 699.5,1095.5C 702.258,1094.18 705.424,1093.52 709,1093.5C 712.576,1093.52 715.742,1094.18 718.5,1095.5 Z"/></g>
<g><path style="opacity:1" fill="#3b7537" d="M 1246.5,1093.5 C 1258.17,1093.5 1269.83,1093.5 1281.5,1093.5C 1281.5,1094.17 1281.5,1094.83 1281.5,1095.5C 1269.83,1095.5 1258.17,1095.5 1246.5,1095.5C 1246.5,1094.83 1246.5,1094.17 1246.5,1093.5 Z"/></g>
<g><path style="opacity:1" fill="#3b7e3b" d="M 1813.5,1095.5 C 1806.17,1095.5 1798.83,1095.5 1791.5,1095.5C 1794.77,1094.18 1798.43,1093.51 1802.5,1093.5C 1806.57,1093.51 1810.23,1094.18 1813.5,1095.5 Z"/></g>
<g><path style="opacity:1" fill="#4b8b3c" d="M 1241.5,1095.5 C 1239.36,1097.37 1236.7,1098.04 1233.5,1097.5C 1235.64,1095.63 1238.3,1094.96 1241.5,1095.5 Z"/></g>
<g><path style="opacity:1" fill="#65b244" d="M 1241.5,1095.5 C 1243.17,1095.5 1244.83,1095.5 1246.5,1095.5C 1258.17,1095.5 1269.83,1095.5 1281.5,1095.5C 1285.17,1095.5 1288.83,1095.5 1292.5,1095.5C 1294.64,1097.37 1297.3,1098.04 1300.5,1097.5C 1303.5,1097.5 1306.5,1097.5 1309.5,1097.5C 1310.55,1099.26 1312.22,1099.92 1314.5,1099.5C 1316.5,1099.5 1318.5,1099.5 1320.5,1099.5C 1320.5,1100.5 1320.5,1101.5 1320.5,1102.5C 1322.83,1102.5 1325.17,1102.5 1327.5,1102.5C 1328.17,1102.5 1328.83,1102.5 1329.5,1102.5C 1330.18,1104.18 1331.52,1104.84 1333.5,1104.5C 1334.17,1104.5 1334.83,1104.5 1335.5,1104.5C 1336.55,1106.26 1338.22,1106.92 1340.5,1106.5C 1343.44,1107.41 1346.44,1108.07 1349.5,1108.5C 1350.18,1110.18 1351.52,1110.84 1353.5,1110.5C 1355.05,1110.82 1355.71,1111.82 1355.5,1113.5C 1364.55,1116.07 1373.21,1119.4 1381.5,1123.5C 1382.5,1123.5 1383.5,1123.5 1384.5,1123.5C 1384.5,1124.5 1384.5,1125.5 1384.5,1126.5C 1385.83,1127.17 1387.17,1127.83 1388.5,1128.5C 1389.83,1128.5 1390.5,1129.17 1390.5,1130.5C 1392.73,1131.59 1395.06,1132.59 1397.5,1133.5C 1398.61,1135.2 1399.94,1136.53 1401.5,1137.5C 1402.83,1137.5 1403.5,1138.17 1403.5,1139.5C 1405.83,1140.83 1408.17,1142.17 1410.5,1143.5C 1411.83,1143.5 1412.5,1144.17 1412.5,1145.5C 1417.4,1149.39 1422.06,1153.72 1426.5,1158.5C 1427.39,1159.32 1427.72,1160.32 1427.5,1161.5C 1428.68,1161.28 1429.68,1161.61 1430.5,1162.5C 1435.69,1167.83 1440.69,1173.16 1445.5,1178.5C 1446.83,1178.5 1447.5,1179.17 1447.5,1180.5C 1448.41,1183.08 1449.75,1185.41 1451.5,1187.5C 1451.82,1189.05 1452.82,1189.71 1454.5,1189.5C 1455.5,1191.01 1456.17,1192.68 1456.5,1194.5C 1457.83,1194.5 1458.5,1195.17 1458.5,1196.5C 1459.17,1197.83 1459.83,1199.17 1460.5,1200.5C 1461.83,1200.5 1462.5,1201.17 1462.5,1202.5C 1462.82,1204.05 1463.82,1204.71 1465.5,1204.5C 1466,1208.49 1467.33,1212.16 1469.5,1215.5C 1469.29,1217.18 1469.95,1218.18 1471.5,1218.5C 1474.22,1222.36 1475.56,1226.7 1475.5,1231.5C 1476.5,1231.5 1477.5,1231.5 1478.5,1231.5C 1479.17,1234.17 1479.83,1236.83 1480.5,1239.5C 1480.08,1241.78 1480.74,1243.45 1482.5,1244.5C 1484.53,1249.27 1485.86,1254.27 1486.5,1259.5C 1486.5,1261.17 1486.5,1262.83 1486.5,1264.5C 1487.5,1264.5 1488.5,1264.5 1489.5,1264.5C 1489.5,1265.83 1489.5,1267.17 1489.5,1268.5C 1489.16,1270.48 1489.82,1271.82 1491.5,1272.5C 1491.5,1274.17 1491.5,1275.83 1491.5,1277.5C 1490.96,1280.7 1491.63,1283.36 1493.5,1285.5C 1493.5,1286.5 1493.5,1287.5 1493.5,1288.5C 1493.5,1291.17 1493.5,1293.83 1493.5,1296.5C 1492.95,1300.01 1493.61,1303.01 1495.5,1305.5C 1495.5,1454.5 1495.5,1603.5 1495.5,1752.5C 1483.83,1752.5 1472.17,1752.5 1460.5,1752.5C 1461.16,1619.83 1460.5,1487.5 1458.5,1355.5C 1458.5,1352.17 1458.5,1348.83 1458.5,1345.5C 1459.08,1341.35 1458.41,1337.68 1456.5,1334.5C 1456.5,1332.83 1456.5,1331.17 1456.5,1329.5C 1457.05,1325.99 1456.39,1322.99 1454.5,1320.5C 1454.5,1319.83 1454.5,1319.17 1454.5,1318.5C 1454.5,1316.5 1454.5,1314.5 1454.5,1312.5C 1453.5,1312.5 1452.5,1312.5 1451.5,1312.5C 1451.5,1311.83 1451.5,1311.17 1451.5,1310.5C 1451.92,1308.22 1451.26,1306.55 1449.5,1305.5C 1449.5,1304.17 1449.5,1302.83 1449.5,1301.5C 1449.92,1299.22 1449.26,1297.55 1447.5,1296.5C 1447.5,1295.83 1447.5,1295.17 1447.5,1294.5C 1447.84,1292.52 1447.18,1291.18 1445.5,1290.5C 1445.92,1288.22 1445.26,1286.55 1443.5,1285.5C 1443.5,1284.83 1443.5,1284.17 1443.5,1283.5C 1443.5,1282.17 1443.5,1280.83 1443.5,1279.5C 1442.5,1279.5 1441.5,1279.5 1440.5,1279.5C 1440.92,1277.22 1440.26,1275.55 1438.5,1274.5C 1438.84,1272.52 1438.18,1271.18 1436.5,1270.5C 1436.84,1268.52 1436.18,1267.18 1434.5,1266.5C 1434.5,1265.17 1433.83,1264.5 1432.5,1264.5C 1431.55,1262.26 1430.88,1259.93 1430.5,1257.5C 1428.82,1257.71 1427.82,1257.05 1427.5,1255.5C 1427.5,1254.17 1426.83,1253.5 1425.5,1253.5C 1425.17,1251.68 1424.5,1250.01 1423.5,1248.5C 1423.5,1247.17 1422.83,1246.5 1421.5,1246.5C 1420.83,1245.17 1420.17,1243.83 1419.5,1242.5C 1419.5,1241.5 1419.5,1240.5 1419.5,1239.5C 1418.5,1239.5 1417.5,1239.5 1416.5,1239.5C 1414.5,1236.83 1412.5,1234.17 1410.5,1231.5C 1410.5,1230.17 1409.83,1229.5 1408.5,1229.5C 1408.5,1228.5 1408.5,1227.5 1408.5,1226.5C 1407.5,1226.5 1406.5,1226.5 1405.5,1226.5C 1402.49,1223.15 1399.83,1219.48 1397.5,1215.5C 1395.68,1215.17 1394.01,1214.5 1392.5,1213.5C 1392.5,1209.5 1390.5,1207.5 1386.5,1207.5C 1384.95,1207.18 1384.29,1206.18 1384.5,1204.5C 1382.82,1204.71 1381.82,1204.05 1381.5,1202.5C 1380.55,1199.69 1378.55,1198.35 1375.5,1198.5C 1373.27,1197.41 1370.94,1196.41 1368.5,1195.5C 1367.15,1194.48 1366.48,1193.14 1366.5,1191.5C 1362.96,1191.02 1359.96,1189.69 1357.5,1187.5C 1356.55,1184.69 1354.55,1183.35 1351.5,1183.5C 1350.83,1183.5 1350.17,1183.5 1349.5,1183.5C 1349.5,1182.5 1349.5,1181.5 1349.5,1180.5C 1347.83,1180.5 1346.17,1180.5 1344.5,1180.5C 1343.82,1178.82 1342.48,1178.16 1340.5,1178.5C 1337.92,1178.53 1335.59,1177.87 1333.5,1176.5C 1333.28,1175.27 1332.61,1174.27 1331.5,1173.5C 1329.26,1172.53 1326.92,1172.19 1324.5,1172.5C 1324.5,1171.5 1324.5,1170.5 1324.5,1169.5C 1321.83,1169.5 1319.17,1169.5 1316.5,1169.5C 1314.01,1167.61 1311.01,1166.95 1307.5,1167.5C 1304.32,1165.59 1300.65,1164.92 1296.5,1165.5C 1292.58,1163.88 1288.24,1162.88 1283.5,1162.5C 1278,1162.17 1272.5,1161.83 1267,1161.5C 1261.12,1161.5 1255.62,1162.17 1250.5,1163.5C 1245.46,1163.17 1240.46,1163.51 1235.5,1164.5C 1231.41,1164.89 1227.74,1165.89 1224.5,1167.5C 1220.99,1166.95 1217.99,1167.61 1215.5,1169.5C 1213.17,1169.5 1210.83,1169.5 1208.5,1169.5C 1208.5,1170.5 1208.5,1171.5 1208.5,1172.5C 1206.97,1174.04 1204.97,1175.04 1202.5,1175.5C 1200.26,1176.47 1197.92,1176.81 1195.5,1176.5C 1193.52,1176.16 1192.18,1176.82 1191.5,1178.5C 1189.41,1179.87 1187.08,1180.53 1184.5,1180.5C 1184.5,1181.5 1184.5,1182.5 1184.5,1183.5C 1183.17,1183.5 1181.83,1183.5 1180.5,1183.5C 1178.52,1183.16 1177.18,1183.82 1176.5,1185.5C 1174.22,1185.08 1172.55,1185.74 1171.5,1187.5C 1169.22,1190.13 1166.22,1191.47 1162.5,1191.5C 1162.52,1193.14 1161.85,1194.48 1160.5,1195.5C 1155.5,1198.62 1150.5,1201.62 1145.5,1204.5C 1143.95,1204.82 1143.29,1205.82 1143.5,1207.5C 1138.47,1209.86 1134.81,1213.53 1132.5,1218.5C 1130.71,1218.21 1129.05,1218.55 1127.5,1219.5C 1122.72,1223.94 1118.39,1228.6 1114.5,1233.5C 1113.17,1233.5 1112.5,1234.17 1112.5,1235.5C 1111.17,1235.5 1110.5,1236.17 1110.5,1237.5C 1108.87,1241.12 1106.54,1244.12 1103.5,1246.5C 1102.17,1246.5 1101.5,1247.17 1101.5,1248.5C 1099.71,1251.36 1098.04,1254.36 1096.5,1257.5C 1095.48,1258.85 1094.14,1259.52 1092.5,1259.5C 1092.53,1262.08 1091.87,1264.41 1090.5,1266.5C 1089.17,1266.5 1088.5,1267.17 1088.5,1268.5C 1085.82,1273.21 1083.82,1278.21 1082.5,1283.5C 1081.5,1283.5 1080.5,1283.5 1079.5,1283.5C 1079,1287.49 1077.67,1291.16 1075.5,1294.5C 1073.74,1295.55 1073.08,1297.22 1073.5,1299.5C 1071.82,1300.18 1071.16,1301.52 1071.5,1303.5C 1071.5,1304.17 1071.5,1304.83 1071.5,1305.5C 1070.5,1305.5 1069.5,1305.5 1068.5,1305.5C 1068.5,1307.17 1068.5,1308.83 1068.5,1310.5C 1068.5,1311.17 1068.5,1311.83 1068.5,1312.5C 1066.82,1313.18 1066.16,1314.52 1066.5,1316.5C 1066.5,1317.17 1066.5,1317.83 1066.5,1318.5C 1064.66,1320.28 1063.99,1322.61 1064.5,1325.5C 1062.61,1327.99 1061.95,1330.99 1062.5,1334.5C 1060.59,1337.68 1059.92,1341.35 1060.5,1345.5C 1059.5,1345.5 1058.5,1345.5 1057.5,1345.5C 1057.5,1349.83 1057.5,1354.17 1057.5,1358.5C 1057.5,1359.83 1057.5,1361.17 1057.5,1362.5C 1055.5,1492.16 1054.84,1622.16 1055.5,1752.5C 1044.5,1752.5 1033.5,1752.5 1022.5,1752.5C 1023.17,1609.83 1022.5,1467.5 1020.5,1325.5C 1020.5,1323.17 1020.5,1320.83 1020.5,1318.5C 1020.5,1317.83 1020.5,1317.17 1020.5,1316.5C 1022.39,1314.01 1023.05,1311.01 1022.5,1307.5C 1022.5,1304.83 1022.5,1302.17 1022.5,1299.5C 1023.5,1299.5 1024.5,1299.5 1025.5,1299.5C 1025.5,1297.17 1025.5,1294.83 1025.5,1292.5C 1025.5,1291.83 1025.5,1291.17 1025.5,1290.5C 1027.26,1289.45 1027.92,1287.78 1027.5,1285.5C 1027.5,1283.5 1027.5,1281.5 1027.5,1279.5C 1029.26,1278.45 1029.92,1276.78 1029.5,1274.5C 1029.5,1273.83 1029.5,1273.17 1029.5,1272.5C 1031.18,1271.82 1031.84,1270.48 1031.5,1268.5C 1031.5,1267.83 1031.5,1267.17 1031.5,1266.5C 1033.26,1265.45 1033.92,1263.78 1033.5,1261.5C 1033.5,1260.17 1033.5,1258.83 1033.5,1257.5C 1034.5,1257.5 1035.5,1257.5 1036.5,1257.5C 1036.44,1252.7 1037.78,1248.36 1040.5,1244.5C 1042.26,1243.45 1042.92,1241.78 1042.5,1239.5C 1043.83,1236.17 1045.17,1232.83 1046.5,1229.5C 1047.5,1229.5 1048.5,1229.5 1049.5,1229.5C 1049.5,1228.5 1049.5,1227.5 1049.5,1226.5C 1051.73,1222.27 1053.73,1217.94 1055.5,1213.5C 1056.83,1213.5 1057.5,1212.83 1057.5,1211.5C 1058.5,1210.17 1059.5,1208.83 1060.5,1207.5C 1062.05,1207.18 1062.71,1206.18 1062.5,1204.5C 1064.51,1202.13 1066.18,1199.47 1067.5,1196.5C 1068.52,1195.15 1069.86,1194.48 1071.5,1194.5C 1071.5,1193.5 1071.5,1192.5 1071.5,1191.5C 1072.83,1191.5 1073.5,1190.83 1073.5,1189.5C 1075.91,1186.76 1077.91,1183.76 1079.5,1180.5C 1082.07,1180.26 1083.74,1178.93 1084.5,1176.5C 1085.83,1176.5 1086.5,1175.83 1086.5,1174.5C 1089.5,1168.83 1093.83,1164.5 1099.5,1161.5C 1101.05,1161.18 1101.71,1160.18 1101.5,1158.5C 1106.13,1155.54 1110.46,1152.2 1114.5,1148.5C 1115.5,1148.5 1116.5,1148.5 1117.5,1148.5C 1117.5,1147.5 1117.5,1146.5 1117.5,1145.5C 1121.69,1142.57 1126.02,1139.91 1130.5,1137.5C 1132.05,1137.18 1132.71,1136.18 1132.5,1134.5C 1137.85,1131.16 1143.51,1128.49 1149.5,1126.5C 1149.5,1125.5 1149.5,1124.5 1149.5,1123.5C 1156.58,1120.14 1163.91,1117.14 1171.5,1114.5C 1173.74,1113.53 1176.08,1113.19 1178.5,1113.5C 1178.5,1112.5 1178.5,1111.5 1178.5,1110.5C 1181.44,1109.59 1184.44,1108.93 1187.5,1108.5C 1189.48,1108.84 1190.82,1108.18 1191.5,1106.5C 1192.17,1106.5 1192.83,1106.5 1193.5,1106.5C 1195.78,1106.92 1197.45,1106.26 1198.5,1104.5C 1199.83,1104.5 1201.17,1104.5 1202.5,1104.5C 1204.48,1104.84 1205.82,1104.18 1206.5,1102.5C 1207.17,1102.5 1207.83,1102.5 1208.5,1102.5C 1210.17,1102.5 1211.83,1102.5 1213.5,1102.5C 1213.5,1101.5 1213.5,1100.5 1213.5,1099.5C 1214.83,1099.5 1216.17,1099.5 1217.5,1099.5C 1221.01,1100.05 1224.01,1099.39 1226.5,1097.5C 1228.83,1097.5 1231.17,1097.5 1233.5,1097.5C 1236.7,1098.04 1239.36,1097.37 1241.5,1095.5 Z"/></g>
<g><path style="opacity:1" fill="#4a8b3d" d="M 1292.5,1095.5 C 1295.7,1094.96 1298.36,1095.63 1300.5,1097.5C 1297.3,1098.04 1294.64,1097.37 1292.5,1095.5 Z"/></g>
<g><path style="opacity:1" fill="#1f5129" d="M 699.5,1095.5 C 705.833,1095.5 712.167,1095.5 718.5,1095.5C 726.087,1095.61 733.42,1096.94 740.5,1099.5C 740.5,1100.5 740.5,1101.5 740.5,1102.5C 746.931,1104.28 752.931,1106.95 758.5,1110.5C 758.281,1111.68 758.614,1112.68 759.5,1113.5C 763.104,1116.08 765.438,1119.41 766.5,1123.5C 767.5,1123.5 768.5,1123.5 769.5,1123.5C 770.449,1125.74 771.116,1128.07 771.5,1130.5C 765.011,1128.34 758.344,1127.01 751.5,1126.5C 751.5,1125.5 751.5,1124.5 751.5,1123.5C 743.817,1123.14 736.151,1122.47 728.5,1121.5C 721.498,1122.29 714.498,1122.96 707.5,1123.5C 707.5,1124.5 707.5,1125.5 707.5,1126.5C 700.348,1127.36 694.015,1130.03 688.5,1134.5C 687.5,1134.5 686.5,1134.5 685.5,1134.5C 685.5,1135.5 685.5,1136.5 685.5,1137.5C 684.265,1137.72 683.265,1138.39 682.5,1139.5C 680.756,1142.55 679.089,1145.55 677.5,1148.5C 676.5,1148.5 675.5,1148.5 674.5,1148.5C 672.235,1155.17 669.569,1161.5 666.5,1167.5C 665.5,1167.5 664.5,1167.5 663.5,1167.5C 663.5,1170.5 663.5,1173.5 663.5,1176.5C 663.879,1181.07 663.213,1185.4 661.5,1189.5C 659.861,1195.11 658.861,1201.11 658.5,1207.5C 658.167,1290.67 657.833,1373.83 657.5,1457C 657.5,1540.5 658.167,1623.67 659.5,1706.5C 658.082,1708.31 656.082,1708.97 653.5,1708.5C 649.587,1708.81 645.921,1708.15 642.5,1706.5C 642.5,1705.5 642.5,1704.5 642.5,1703.5C 643.847,1518.97 645.18,1334.14 646.5,1149C 646.453,1146.7 645.787,1144.87 644.5,1143.5C 645.406,1140.56 646.072,1137.56 646.5,1134.5C 648.847,1132.47 650.181,1129.81 650.5,1126.5C 651.5,1126.5 652.5,1126.5 653.5,1126.5C 654.201,1124.09 655.201,1121.76 656.5,1119.5C 659.664,1117.02 661.998,1114.02 663.5,1110.5C 665.288,1110.79 666.955,1110.45 668.5,1109.5C 671.951,1105.52 676.284,1103.19 681.5,1102.5C 681.5,1101.5 681.5,1100.5 681.5,1099.5C 687.206,1096.95 693.206,1095.62 699.5,1095.5 Z"/></g>
<g><path style="opacity:1" fill="#45833a" d="M 1226.5,1097.5 C 1224.01,1099.39 1221.01,1100.05 1217.5,1099.5C 1219.99,1097.61 1222.99,1096.95 1226.5,1097.5 Z"/></g>
<g><path style="opacity:1" fill="#46853b" d="M 1309.5,1097.5 C 1311.78,1097.08 1313.45,1097.74 1314.5,1099.5C 1312.22,1099.92 1310.55,1099.26 1309.5,1097.5 Z"/></g>
<g><path style="opacity:1" fill="#1f5129" d="M 1791.5,1095.5 C 1798.83,1095.5 1806.17,1095.5 1813.5,1095.5C 1819.94,1096.35 1826.28,1097.68 1832.5,1099.5C 1832.5,1100.5 1832.5,1101.5 1832.5,1102.5C 1837.8,1102.98 1842.13,1105.32 1845.5,1109.5C 1847.05,1110.45 1848.71,1110.79 1850.5,1110.5C 1850.28,1111.68 1850.61,1112.68 1851.5,1113.5C 1855.1,1116.08 1857.44,1119.41 1858.5,1123.5C 1859.5,1123.5 1860.5,1123.5 1861.5,1123.5C 1863.69,1129.22 1866.36,1134.55 1869.5,1139.5C 1869.5,1140.83 1869.5,1142.17 1869.5,1143.5C 1868.21,1144.87 1867.55,1146.7 1867.5,1149C 1869.49,1333.8 1870.15,1518.63 1869.5,1703.5C 1870.5,1703.5 1871.5,1703.5 1872.5,1703.5C 1872.5,1704.5 1872.5,1705.5 1872.5,1706.5C 1869.01,1707.95 1865.35,1708.62 1861.5,1708.5C 1859.83,1708.5 1858.17,1708.5 1856.5,1708.5C 1856.83,1541.5 1856.5,1374.5 1855.5,1207.5C 1855.14,1201.11 1854.14,1195.11 1852.5,1189.5C 1850.36,1182.38 1849.02,1175.05 1848.5,1167.5C 1847.5,1167.5 1846.5,1167.5 1845.5,1167.5C 1845.8,1165.4 1845.47,1163.4 1844.5,1161.5C 1842.14,1156.12 1839.81,1150.79 1837.5,1145.5C 1836.32,1145.72 1835.32,1145.39 1834.5,1144.5C 1833.17,1142.5 1831.83,1140.5 1830.5,1138.5C 1829.31,1137.57 1827.98,1137.24 1826.5,1137.5C 1826.5,1136.5 1826.5,1135.5 1826.5,1134.5C 1822.4,1131.95 1818.07,1129.61 1813.5,1127.5C 1811.26,1126.53 1808.92,1126.19 1806.5,1126.5C 1806.5,1125.5 1806.5,1124.5 1806.5,1123.5C 1799.5,1122.96 1792.5,1122.29 1785.5,1121.5C 1777.85,1122.47 1770.18,1123.14 1762.5,1123.5C 1762.5,1124.5 1762.5,1125.5 1762.5,1126.5C 1755.66,1127.01 1748.99,1128.34 1742.5,1130.5C 1742.5,1129.17 1742.5,1127.83 1742.5,1126.5C 1743.5,1126.5 1744.5,1126.5 1745.5,1126.5C 1747.09,1123.55 1748.76,1120.55 1750.5,1117.5C 1752.01,1115.31 1754.01,1113.98 1756.5,1113.5C 1756.5,1112.5 1756.5,1111.5 1756.5,1110.5C 1757.98,1110.76 1759.31,1110.43 1760.5,1109.5C 1763.95,1105.52 1768.28,1103.19 1773.5,1102.5C 1773.5,1101.5 1773.5,1100.5 1773.5,1099.5C 1779.46,1098.03 1785.46,1096.69 1791.5,1095.5 Z"/></g>
<g><path style="opacity:1" fill="#387135" d="M 1213.5,1099.5 C 1213.5,1100.5 1213.5,1101.5 1213.5,1102.5C 1211.83,1102.5 1210.17,1102.5 1208.5,1102.5C 1208.5,1101.5 1208.5,1100.5 1208.5,1099.5C 1210.17,1099.5 1211.83,1099.5 1213.5,1099.5 Z"/></g>
<g><path style="opacity:1" fill="#336b33" d="M 1320.5,1099.5 C 1322.83,1099.5 1325.17,1099.5 1327.5,1099.5C 1327.5,1100.5 1327.5,1101.5 1327.5,1102.5C 1325.17,1102.5 1322.83,1102.5 1320.5,1102.5C 1320.5,1101.5 1320.5,1100.5 1320.5,1099.5 Z"/></g>
<g><path style="opacity:1" fill="#4e8f3e" d="M 1206.5,1102.5 C 1205.82,1104.18 1204.48,1104.84 1202.5,1104.5C 1203.18,1102.82 1204.52,1102.16 1206.5,1102.5 Z"/></g>
<g><path style="opacity:1" fill="#3c7737" d="M 1329.5,1102.5 C 1331.48,1102.16 1332.82,1102.82 1333.5,1104.5C 1331.52,1104.84 1330.18,1104.18 1329.5,1102.5 Z"/></g>
<g><path style="opacity:1" fill="#46843b" d="M 1198.5,1104.5 C 1197.45,1106.26 1195.78,1106.92 1193.5,1106.5C 1194.55,1104.74 1196.22,1104.08 1198.5,1104.5 Z"/></g>
<g><path style="opacity:1" fill="#427f39" d="M 1335.5,1104.5 C 1337.78,1104.08 1339.45,1104.74 1340.5,1106.5C 1338.22,1106.92 1336.55,1106.26 1335.5,1104.5 Z"/></g>
<g><path style="opacity:1" fill="#47863b" d="M 1191.5,1106.5 C 1190.82,1108.18 1189.48,1108.84 1187.5,1108.5C 1188.18,1106.82 1189.52,1106.16 1191.5,1106.5 Z"/></g>
<g><path style="opacity:1" fill="#397235" d="M 1349.5,1108.5 C 1351.48,1108.16 1352.82,1108.82 1353.5,1110.5C 1351.52,1110.84 1350.18,1110.18 1349.5,1108.5 Z"/></g>
<g><path style="opacity:1" fill="#3d7837" d="M 1381.5,1123.5 C 1382.5,1123.5 1383.5,1123.5 1384.5,1123.5C 1384.5,1124.5 1384.5,1125.5 1384.5,1126.5C 1383.5,1126.5 1382.5,1126.5 1381.5,1126.5C 1381.5,1125.5 1381.5,1124.5 1381.5,1123.5 Z"/></g>
<g><path style="opacity:1" fill="#4a8a3c" d="M 1388.5,1128.5 C 1389.83,1128.5 1390.5,1129.17 1390.5,1130.5C 1389.17,1130.5 1388.5,1129.83 1388.5,1128.5 Z"/></g>
<g><path style="opacity:0.008" fill="#367538" d="M 688.5,1134.5 C 688.5,1135.5 688.5,1136.5 688.5,1137.5C 687.5,1137.5 686.5,1137.5 685.5,1137.5C 685.5,1136.5 685.5,1135.5 685.5,1134.5C 686.5,1134.5 687.5,1134.5 688.5,1134.5 Z"/></g>
<g><path style="opacity:1" fill="#45843a" d="M 1132.5,1134.5 C 1132.71,1136.18 1132.05,1137.18 1130.5,1137.5C 1130.29,1135.82 1130.95,1134.82 1132.5,1134.5 Z"/></g>
<g><path style="opacity:1" fill="#46843a" d="M 1401.5,1137.5 C 1402.83,1137.5 1403.5,1138.17 1403.5,1139.5C 1402.17,1139.5 1401.5,1138.83 1401.5,1137.5 Z"/></g>
<g><path style="opacity:1" fill="#407d38" d="M 1410.5,1143.5 C 1411.83,1143.5 1412.5,1144.17 1412.5,1145.5C 1411.17,1145.5 1410.5,1144.83 1410.5,1143.5 Z"/></g>
<g><path style="opacity:1" fill="#438039" d="M 1117.5,1145.5 C 1117.5,1146.5 1117.5,1147.5 1117.5,1148.5C 1116.5,1148.5 1115.5,1148.5 1114.5,1148.5C 1114.5,1147.5 1114.5,1146.5 1114.5,1145.5C 1115.5,1145.5 1116.5,1145.5 1117.5,1145.5 Z"/></g>
<g><path style="opacity:1" fill="#2a6331" d="M 644.5,1143.5 C 645.055,1147.01 644.388,1150.01 642.5,1152.5C 641.945,1148.99 642.612,1145.99 644.5,1143.5 Z"/></g>
<g><path style="opacity:1" fill="#2b6331" d="M 1869.5,1143.5 C 1870.5,1143.5 1871.5,1143.5 1872.5,1143.5C 1872.5,1146.5 1872.5,1149.5 1872.5,1152.5C 1871.5,1152.5 1870.5,1152.5 1869.5,1152.5C 1869.5,1149.5 1869.5,1146.5 1869.5,1143.5 Z"/></g>
<g><path style="opacity:1" fill="#174524" d="M 644.5,1143.5 C 645.787,1144.87 646.453,1146.7 646.5,1149C 645.18,1334.14 643.847,1518.97 642.5,1703.5C 642.5,1519.83 642.5,1336.17 642.5,1152.5C 644.388,1150.01 645.055,1147.01 644.5,1143.5 Z"/></g>
<g><path style="opacity:1" fill="#174524" d="M 1869.5,1143.5 C 1869.5,1146.5 1869.5,1149.5 1869.5,1152.5C 1870.5,1152.5 1871.5,1152.5 1872.5,1152.5C 1872.5,1336.17 1872.5,1519.83 1872.5,1703.5C 1871.5,1703.5 1870.5,1703.5 1869.5,1703.5C 1870.15,1518.63 1869.49,1333.8 1867.5,1149C 1867.55,1146.7 1868.21,1144.87 1869.5,1143.5 Z"/></g>
<g><path style="opacity:0.995" fill="#50a746" d="M 646.5,1134.5 C 646.072,1137.56 645.406,1140.56 644.5,1143.5C 642.612,1145.99 641.945,1148.99 642.5,1152.5C 641.5,1152.5 640.5,1152.5 639.5,1152.5C 639.5,1337.17 639.5,1521.83 639.5,1706.5C 637.952,1706.18 637.285,1705.18 637.5,1703.5C 636.85,1516.12 637.517,1328.78 639.5,1141.5C 640.5,1141.5 641.5,1141.5 642.5,1141.5C 642.192,1139.08 642.526,1136.74 643.5,1134.5C 644.88,1132.02 645.88,1132.02 646.5,1134.5 Z"/></g>
<g><path style="opacity:0.636" fill="#3ca148" d="M 779.5,1156.5 C 780.5,1156.5 781.5,1156.5 782.5,1156.5C 782.5,1188.83 782.5,1221.17 782.5,1253.5C 781.5,1253.5 780.5,1253.5 779.5,1253.5C 779.5,1221.17 779.5,1188.83 779.5,1156.5 Z"/></g>
<g><path style="opacity:1" fill="#498a3b" d="M 1101.5,1158.5 C 1101.71,1160.18 1101.05,1161.18 1099.5,1161.5C 1099.29,1159.82 1099.95,1158.82 1101.5,1158.5 Z"/></g>
<g><path style="opacity:1" fill="#50a746" d="M 1876.5,1706.5 C 1875.83,1706.5 1875.17,1706.5 1874.5,1706.5C 1875.17,1521.5 1874.5,1336.83 1872.5,1152.5C 1872.5,1149.5 1872.5,1146.5 1872.5,1143.5C 1871.5,1143.5 1870.5,1143.5 1869.5,1143.5C 1869.5,1142.17 1869.5,1140.83 1869.5,1139.5C 1869.82,1137.95 1870.82,1137.29 1872.5,1137.5C 1873.4,1141.15 1874.4,1144.82 1875.5,1148.5C 1876.5,1334.5 1876.83,1520.5 1876.5,1706.5 Z"/></g>
<g><path style="opacity:0.862" fill="#5ba342" d="M 1296.5,1165.5 C 1286.59,1165.86 1276.76,1165.19 1267,1163.5C 1263.76,1164 1260.59,1164.66 1257.5,1165.5C 1255.72,1163.66 1253.39,1162.99 1250.5,1163.5C 1255.62,1162.17 1261.12,1161.5 1267,1161.5C 1272.5,1161.83 1278,1162.17 1283.5,1162.5C 1288.24,1162.88 1292.58,1163.88 1296.5,1165.5 Z"/></g>
<g><path style="opacity:1" fill="#337037" d="M 642.5,1152.5 C 642.5,1336.17 642.5,1519.83 642.5,1703.5C 642.5,1704.5 642.5,1705.5 642.5,1706.5C 641.5,1706.5 640.5,1706.5 639.5,1706.5C 639.5,1521.83 639.5,1337.17 639.5,1152.5C 640.5,1152.5 641.5,1152.5 642.5,1152.5 Z"/></g>
<g><path style="opacity:1" fill="#337037" d="M 1872.5,1152.5 C 1874.5,1336.83 1875.17,1521.5 1874.5,1706.5C 1873.83,1706.5 1873.17,1706.5 1872.5,1706.5C 1872.5,1705.5 1872.5,1704.5 1872.5,1703.5C 1872.5,1519.83 1872.5,1336.17 1872.5,1152.5 Z"/></g>
<g><path style="opacity:0.294" fill="#52953f" d="M 1250.5,1163.5 C 1253.39,1162.99 1255.72,1163.66 1257.5,1165.5C 1246.47,1165.7 1235.47,1166.37 1224.5,1167.5C 1227.74,1165.89 1231.41,1164.89 1235.5,1164.5C 1240.46,1163.51 1245.46,1163.17 1250.5,1163.5 Z"/></g>
<g><path style="opacity:0.769" fill="#549840" d="M 1296.5,1165.5 C 1300.65,1164.92 1304.32,1165.59 1307.5,1167.5C 1303.35,1168.08 1299.68,1167.41 1296.5,1165.5 Z"/></g>
<g><path style="opacity:0.137" fill="#50923e" d="M 1224.5,1167.5 C 1222.01,1169.39 1219.01,1170.05 1215.5,1169.5C 1217.99,1167.61 1220.99,1166.95 1224.5,1167.5 Z"/></g>
<g><path style="opacity:0.741" fill="#559940" d="M 1307.5,1167.5 C 1311.01,1166.95 1314.01,1167.61 1316.5,1169.5C 1312.99,1170.05 1309.99,1169.39 1307.5,1167.5 Z"/></g>
<g><path style="opacity:0.137" fill="#4f913e" d="M 1215.5,1169.5 C 1215.5,1170.5 1215.5,1171.5 1215.5,1172.5C 1213.17,1172.5 1210.83,1172.5 1208.5,1172.5C 1208.5,1171.5 1208.5,1170.5 1208.5,1169.5C 1210.83,1169.5 1213.17,1169.5 1215.5,1169.5 Z"/></g>
<g><path style="opacity:0.898" fill="#559940" d="M 1316.5,1169.5 C 1319.17,1169.5 1321.83,1169.5 1324.5,1169.5C 1324.5,1170.5 1324.5,1171.5 1324.5,1172.5C 1326.92,1172.19 1329.26,1172.53 1331.5,1173.5C 1332.61,1174.27 1333.28,1175.27 1333.5,1176.5C 1327.92,1174.81 1322.26,1173.48 1316.5,1172.5C 1316.5,1171.5 1316.5,1170.5 1316.5,1169.5 Z"/></g>
<g><path style="opacity:0.067" fill="#2e6833" d="M 666.5,1167.5 C 666.5,1170.5 666.5,1173.5 666.5,1176.5C 665.5,1176.5 664.5,1176.5 663.5,1176.5C 663.5,1173.5 663.5,1170.5 663.5,1167.5C 664.5,1167.5 665.5,1167.5 666.5,1167.5 Z"/></g>
<g><path style="opacity:1" fill="#4a8b3c" d="M 1086.5,1174.5 C 1086.5,1175.83 1085.83,1176.5 1084.5,1176.5C 1084.5,1175.17 1085.17,1174.5 1086.5,1174.5 Z"/></g>
<g><path style="opacity:0.098" fill="#4d8e3e" d="M 1195.5,1176.5 C 1194.82,1178.18 1193.48,1178.84 1191.5,1178.5C 1192.18,1176.82 1193.52,1176.16 1195.5,1176.5 Z"/></g>
<g><path style="opacity:0.463" fill="#4d8e3e" d="M 1340.5,1178.5 C 1342.48,1178.16 1343.82,1178.82 1344.5,1180.5C 1342.52,1180.84 1341.18,1180.18 1340.5,1178.5 Z"/></g>
<g><path style="opacity:1" fill="#3d7937" d="M 1445.5,1178.5 C 1446.83,1178.5 1447.5,1179.17 1447.5,1180.5C 1446.17,1180.5 1445.5,1179.83 1445.5,1178.5 Z"/></g>
<g><path style="opacity:0.416" fill="#4c8c3d" d="M 1344.5,1180.5 C 1346.17,1180.5 1347.83,1180.5 1349.5,1180.5C 1349.5,1181.5 1349.5,1182.5 1349.5,1183.5C 1347.83,1183.5 1346.17,1183.5 1344.5,1183.5C 1344.5,1182.5 1344.5,1181.5 1344.5,1180.5 Z"/></g>
<g><path style="opacity:0.145" fill="#4d8e3e" d="M 1180.5,1183.5 C 1179.82,1185.18 1178.48,1185.84 1176.5,1185.5C 1177.18,1183.82 1178.52,1183.16 1180.5,1183.5 Z"/></g>
<g><path style="opacity:0.141" fill="#4d8e3e" d="M 1176.5,1185.5 C 1175.45,1187.26 1173.78,1187.92 1171.5,1187.5C 1172.55,1185.74 1174.22,1185.08 1176.5,1185.5 Z"/></g>
<g><path style="opacity:0.494" fill="#51933e" d="M 1351.5,1183.5 C 1354.55,1183.35 1356.55,1184.69 1357.5,1187.5C 1354.45,1187.65 1352.45,1186.31 1351.5,1183.5 Z"/></g>
<g><path style="opacity:1" fill="#407e39" d="M 1451.5,1187.5 C 1453.18,1187.29 1454.18,1187.95 1454.5,1189.5C 1452.82,1189.71 1451.82,1189.05 1451.5,1187.5 Z"/></g>
<g><path style="opacity:1" fill="#45833a" d="M 1073.5,1189.5 C 1073.5,1190.83 1072.83,1191.5 1071.5,1191.5C 1071.5,1190.17 1072.17,1189.5 1073.5,1189.5 Z"/></g>
<g><path style="opacity:1" fill="#48883c" d="M 1456.5,1194.5 C 1457.83,1194.5 1458.5,1195.17 1458.5,1196.5C 1457.17,1196.5 1456.5,1195.83 1456.5,1194.5 Z"/></g>
<g><path style="opacity:0.918" fill="#54993f" d="M 1375.5,1198.5 C 1378.55,1198.35 1380.55,1199.69 1381.5,1202.5C 1378.45,1202.65 1376.45,1201.31 1375.5,1198.5 Z"/></g>
<g><path style="opacity:1" fill="#44823a" d="M 1460.5,1200.5 C 1461.83,1200.5 1462.5,1201.17 1462.5,1202.5C 1461.17,1202.5 1460.5,1201.83 1460.5,1200.5 Z"/></g>
<g><path style="opacity:1" fill="#47863b" d="M 1062.5,1204.5 C 1062.71,1206.18 1062.05,1207.18 1060.5,1207.5C 1060.29,1205.82 1060.95,1204.82 1062.5,1204.5 Z"/></g>
<g><path style="opacity:0.027" fill="#438039" d="M 1145.5,1204.5 C 1145.71,1206.18 1145.05,1207.18 1143.5,1207.5C 1143.29,1205.82 1143.95,1204.82 1145.5,1204.5 Z"/></g>
<g><path style="opacity:0.929" fill="#50943e" d="M 1386.5,1207.5 C 1390.5,1207.5 1392.5,1209.5 1392.5,1213.5C 1389.83,1212.17 1387.83,1210.17 1386.5,1207.5 Z"/></g>
<g><path style="opacity:0.137" fill="#2d6733" d="M 661.5,1209.5 C 661.5,1376.5 661.5,1543.5 661.5,1710.5C 658.302,1711.04 655.635,1710.37 653.5,1708.5C 656.082,1708.97 658.082,1708.31 659.5,1706.5C 658.835,1540.5 659.501,1374.83 661.5,1209.5 Z"/></g>
<g><path style="opacity:1" fill="#427e39" d="M 1057.5,1211.5 C 1057.5,1212.83 1056.83,1213.5 1055.5,1213.5C 1055.5,1212.17 1056.17,1211.5 1057.5,1211.5 Z"/></g>
<g><path style="opacity:0.137" fill="#2d6733" d="M 1852.5,1209.5 C 1853.83,1375.83 1855.17,1542.17 1856.5,1708.5C 1858.17,1708.5 1859.83,1708.5 1861.5,1708.5C 1859.01,1710.39 1856.01,1711.05 1852.5,1710.5C 1852.5,1543.5 1852.5,1376.5 1852.5,1209.5 Z"/></g>
<g><path style="opacity:1" fill="#22542c" d="M 661.5,1189.5 C 661.5,1196.17 661.5,1202.83 661.5,1209.5C 659.501,1374.83 658.835,1540.5 659.5,1706.5C 658.167,1623.67 657.5,1540.5 657.5,1457C 657.833,1373.83 658.167,1290.67 658.5,1207.5C 658.861,1201.11 659.861,1195.11 661.5,1189.5 Z"/></g>
<g><path style="opacity:1" fill="#438039" d="M 1469.5,1215.5 C 1471.05,1215.82 1471.71,1216.82 1471.5,1218.5C 1469.95,1218.18 1469.29,1217.18 1469.5,1215.5 Z"/></g>
<g><path style="opacity:1" fill="#22542c" d="M 1852.5,1189.5 C 1854.14,1195.11 1855.14,1201.11 1855.5,1207.5C 1856.5,1374.5 1856.83,1541.5 1856.5,1708.5C 1855.17,1542.17 1853.83,1375.83 1852.5,1209.5C 1852.5,1202.83 1852.5,1196.17 1852.5,1189.5 Z"/></g>
<g><path style="opacity:1" fill="#407d39" d="M 1049.5,1226.5 C 1049.5,1227.5 1049.5,1228.5 1049.5,1229.5C 1048.5,1229.5 1047.5,1229.5 1046.5,1229.5C 1046.5,1228.5 1046.5,1227.5 1046.5,1226.5C 1047.5,1226.5 1048.5,1226.5 1049.5,1226.5 Z"/></g>
<g><path style="opacity:0.063" fill="#3e7a37" d="M 1405.5,1226.5 C 1406.5,1226.5 1407.5,1226.5 1408.5,1226.5C 1408.5,1227.5 1408.5,1228.5 1408.5,1229.5C 1407.5,1229.5 1406.5,1229.5 1405.5,1229.5C 1405.5,1228.5 1405.5,1227.5 1405.5,1226.5 Z"/></g>
<g><path style="opacity:0.153" fill="#44813a" d="M 1408.5,1229.5 C 1409.83,1229.5 1410.5,1230.17 1410.5,1231.5C 1409.17,1231.5 1408.5,1230.83 1408.5,1229.5 Z"/></g>
<g><path style="opacity:0.031" fill="#3e7a38" d="M 1114.5,1233.5 C 1114.5,1234.83 1113.83,1235.5 1112.5,1235.5C 1112.5,1234.17 1113.17,1233.5 1114.5,1233.5 Z"/></g>
<g><path style="opacity:0.122" fill="#438039" d="M 1112.5,1235.5 C 1112.5,1236.83 1111.83,1237.5 1110.5,1237.5C 1110.5,1236.17 1111.17,1235.5 1112.5,1235.5 Z"/></g>
<g><path style="opacity:0.927" fill="#205129" d="M 1252.5,1235.5 C 1262.83,1235.5 1273.17,1235.5 1283.5,1235.5C 1283.5,1268.5 1283.5,1301.5 1283.5,1334.5C 1273.17,1334.5 1262.83,1334.5 1252.5,1334.5C 1252.5,1301.5 1252.5,1268.5 1252.5,1235.5 Z"/></g>
<g><path style="opacity:0.141" fill="#438039" d="M 1416.5,1239.5 C 1417.5,1239.5 1418.5,1239.5 1419.5,1239.5C 1419.5,1240.5 1419.5,1241.5 1419.5,1242.5C 1418.5,1242.5 1417.5,1242.5 1416.5,1242.5C 1416.5,1241.5 1416.5,1240.5 1416.5,1239.5 Z"/></g>
<g><path style="opacity:1" fill="#4e913e" d="M 1042.5,1239.5 C 1042.92,1241.78 1042.26,1243.45 1040.5,1244.5C 1040.08,1242.22 1040.74,1240.55 1042.5,1239.5 Z"/></g>
<g><path style="opacity:1" fill="#4e8f3e" d="M 1480.5,1239.5 C 1482.26,1240.55 1482.92,1242.22 1482.5,1244.5C 1480.74,1243.45 1480.08,1241.78 1480.5,1239.5 Z"/></g>
<g><path style="opacity:0.09" fill="#417e39" d="M 1103.5,1246.5 C 1103.5,1247.83 1102.83,1248.5 1101.5,1248.5C 1101.5,1247.17 1102.17,1246.5 1103.5,1246.5 Z"/></g>
<g><path style="opacity:0.035" fill="#407b38" d="M 1421.5,1246.5 C 1422.83,1246.5 1423.5,1247.17 1423.5,1248.5C 1422.17,1248.5 1421.5,1247.83 1421.5,1246.5 Z"/></g>
<g><path style="opacity:0.051" fill="#407a37" d="M 1425.5,1253.5 C 1426.83,1253.5 1427.5,1254.17 1427.5,1255.5C 1426.17,1255.5 1425.5,1254.83 1425.5,1253.5 Z"/></g>
<g><path style="opacity:1" fill="#47863c" d="M 1486.5,1259.5 C 1487.5,1259.5 1488.5,1259.5 1489.5,1259.5C 1489.5,1261.17 1489.5,1262.83 1489.5,1264.5C 1488.5,1264.5 1487.5,1264.5 1486.5,1264.5C 1486.5,1262.83 1486.5,1261.17 1486.5,1259.5 Z"/></g>
<g><path style="opacity:1" fill="#48863b" d="M 1033.5,1261.5 C 1033.92,1263.78 1033.26,1265.45 1031.5,1266.5C 1031.08,1264.22 1031.74,1262.55 1033.5,1261.5 Z"/></g>
<g><path style="opacity:0.094" fill="#438039" d="M 1432.5,1264.5 C 1433.83,1264.5 1434.5,1265.17 1434.5,1266.5C 1433.17,1266.5 1432.5,1265.83 1432.5,1264.5 Z"/></g>
<g><path style="opacity:0.043" fill="#417d38" d="M 1090.5,1266.5 C 1090.5,1267.83 1089.83,1268.5 1088.5,1268.5C 1088.5,1267.17 1089.17,1266.5 1090.5,1266.5 Z"/></g>
<g><path style="opacity:0.055" fill="#45843b" d="M 1434.5,1266.5 C 1436.18,1267.18 1436.84,1268.52 1436.5,1270.5C 1434.82,1269.82 1434.16,1268.48 1434.5,1266.5 Z"/></g>
<g><path style="opacity:1" fill="#45833b" d="M 1031.5,1268.5 C 1031.84,1270.48 1031.18,1271.82 1029.5,1272.5C 1029.16,1270.52 1029.82,1269.18 1031.5,1268.5 Z"/></g>
<g><path style="opacity:1" fill="#45843b" d="M 1489.5,1268.5 C 1491.18,1269.18 1491.84,1270.52 1491.5,1272.5C 1489.82,1271.82 1489.16,1270.48 1489.5,1268.5 Z"/></g>
<g><path style="opacity:0.059" fill="#46843b" d="M 1436.5,1270.5 C 1438.18,1271.18 1438.84,1272.52 1438.5,1274.5C 1436.82,1273.82 1436.16,1272.48 1436.5,1270.5 Z"/></g>
<g><path style="opacity:1" fill="#3b7636" d="M 1029.5,1274.5 C 1029.92,1276.78 1029.26,1278.45 1027.5,1279.5C 1027.08,1277.22 1027.74,1275.55 1029.5,1274.5 Z"/></g>
<g><path style="opacity:0.094" fill="#49893c" d="M 1438.5,1274.5 C 1440.26,1275.55 1440.92,1277.22 1440.5,1279.5C 1438.74,1278.45 1438.08,1276.78 1438.5,1274.5 Z"/></g>
<g><path style="opacity:0.192" fill="#4c8c3d" d="M 1440.5,1279.5 C 1441.5,1279.5 1442.5,1279.5 1443.5,1279.5C 1443.5,1280.83 1443.5,1282.17 1443.5,1283.5C 1442.5,1283.5 1441.5,1283.5 1440.5,1283.5C 1440.5,1282.17 1440.5,1280.83 1440.5,1279.5 Z"/></g>
<g><path style="opacity:0.915" fill="#4d9f45" d="M 1208.5,1283.5 C 1218.83,1283.5 1229.17,1283.5 1239.5,1283.5C 1239.5,1316.5 1239.5,1349.5 1239.5,1382.5C 1229.17,1382.5 1218.83,1382.5 1208.5,1382.5C 1208.5,1349.5 1208.5,1316.5 1208.5,1283.5 Z"/></g>
<g><path style="opacity:0.874" fill="#4d9f45" d="M 1298.5,1283.5 C 1309.5,1283.5 1320.5,1283.5 1331.5,1283.5C 1331.5,1316.5 1331.5,1349.5 1331.5,1382.5C 1320.5,1382.5 1309.5,1382.5 1298.5,1382.5C 1298.5,1349.5 1298.5,1316.5 1298.5,1283.5 Z"/></g>
<g><path style="opacity:1" fill="#498a3c" d="M 1491.5,1277.5 C 1492.17,1277.5 1492.83,1277.5 1493.5,1277.5C 1493.5,1280.17 1493.5,1282.83 1493.5,1285.5C 1491.63,1283.36 1490.96,1280.7 1491.5,1277.5 Z"/></g>
<g><path style="opacity:1" fill="#4c8d3d" d="M 1027.5,1285.5 C 1027.92,1287.78 1027.26,1289.45 1025.5,1290.5C 1025.08,1288.22 1025.74,1286.55 1027.5,1285.5 Z"/></g>
<g><path style="opacity:0.024" fill="#45823a" d="M 1443.5,1285.5 C 1445.26,1286.55 1445.92,1288.22 1445.5,1290.5C 1443.74,1289.45 1443.08,1287.78 1443.5,1285.5 Z"/></g>
<g><path style="opacity:0.224" fill="#4d8d3d" d="M 1445.5,1290.5 C 1447.18,1291.18 1447.84,1292.52 1447.5,1294.5C 1445.82,1293.82 1445.16,1292.48 1445.5,1290.5 Z"/></g>
<g><path style="opacity:1" fill="#397336" d="M 1493.5,1288.5 C 1495.37,1290.64 1496.04,1293.3 1495.5,1296.5C 1494.83,1296.5 1494.17,1296.5 1493.5,1296.5C 1493.5,1293.83 1493.5,1291.17 1493.5,1288.5 Z"/></g>
<g><path style="opacity:1" fill="#3f7b38" d="M 1025.5,1292.5 C 1025.5,1294.83 1025.5,1297.17 1025.5,1299.5C 1024.5,1299.5 1023.5,1299.5 1022.5,1299.5C 1022.5,1297.17 1022.5,1294.83 1022.5,1292.5C 1023.5,1292.5 1024.5,1292.5 1025.5,1292.5 Z"/></g>
<g><path style="opacity:0.063" fill="#47853b" d="M 1075.5,1294.5 C 1075.92,1296.78 1075.26,1298.45 1073.5,1299.5C 1073.08,1297.22 1073.74,1295.55 1075.5,1294.5 Z"/></g>
<g><path style="opacity:0.192" fill="#4b8a3c" d="M 1447.5,1296.5 C 1449.26,1297.55 1449.92,1299.22 1449.5,1301.5C 1447.74,1300.45 1447.08,1298.78 1447.5,1296.5 Z"/></g>
<g><path style="opacity:0.247" fill="#4d8e3e" d="M 1073.5,1299.5 C 1073.84,1301.48 1073.18,1302.82 1071.5,1303.5C 1071.16,1301.52 1071.82,1300.18 1073.5,1299.5 Z"/></g>
<g><path style="opacity:1" fill="#53983f" d="M 1493.5,1296.5 C 1494.17,1296.5 1494.83,1296.5 1495.5,1296.5C 1495.5,1299.5 1495.5,1302.5 1495.5,1305.5C 1493.61,1303.01 1492.95,1300.01 1493.5,1296.5 Z"/></g>
<g><path style="opacity:0.149" fill="#4a893c" d="M 1071.5,1305.5 C 1071.5,1307.17 1071.5,1308.83 1071.5,1310.5C 1070.5,1310.5 1069.5,1310.5 1068.5,1310.5C 1068.5,1308.83 1068.5,1307.17 1068.5,1305.5C 1069.5,1305.5 1070.5,1305.5 1071.5,1305.5 Z"/></g>
<g><path style="opacity:0.031" fill="#44823a" d="M 1449.5,1305.5 C 1451.26,1306.55 1451.92,1308.22 1451.5,1310.5C 1449.74,1309.45 1449.08,1307.78 1449.5,1305.5 Z"/></g>
<g><path style="opacity:1" fill="#48893c" d="M 1020.5,1307.5 C 1021.17,1307.5 1021.83,1307.5 1022.5,1307.5C 1023.05,1311.01 1022.39,1314.01 1020.5,1316.5C 1020.5,1313.5 1020.5,1310.5 1020.5,1307.5 Z"/></g>
<g><path style="opacity:0.157" fill="#4a893c" d="M 1068.5,1312.5 C 1068.84,1314.48 1068.18,1315.82 1066.5,1316.5C 1066.16,1314.52 1066.82,1313.18 1068.5,1312.5 Z"/></g>
<g><path style="opacity:0.22" fill="#4a8a3c" d="M 1451.5,1312.5 C 1452.5,1312.5 1453.5,1312.5 1454.5,1312.5C 1454.5,1314.5 1454.5,1316.5 1454.5,1318.5C 1453.5,1318.5 1452.5,1318.5 1451.5,1318.5C 1451.5,1316.5 1451.5,1314.5 1451.5,1312.5 Z"/></g>
<g><path style="opacity:0.999" fill="#2c6230" d="M 1495.5,1305.5 C 1497.5,1454.16 1498.17,1603.16 1497.5,1752.5C 1496.83,1752.5 1496.17,1752.5 1495.5,1752.5C 1495.5,1603.5 1495.5,1454.5 1495.5,1305.5 Z"/></g>
<g><path style="opacity:0.999" fill="#174725" d="M 1500.5,1752.5 C 1499.5,1752.5 1498.5,1752.5 1497.5,1752.5C 1498.17,1603.16 1497.5,1454.16 1495.5,1305.5C 1495.5,1302.5 1495.5,1299.5 1495.5,1296.5C 1496.04,1293.3 1495.37,1290.64 1493.5,1288.5C 1493.5,1287.5 1493.5,1286.5 1493.5,1285.5C 1493.5,1282.83 1493.5,1280.17 1493.5,1277.5C 1493.28,1276.32 1493.61,1275.32 1494.5,1274.5C 1496.73,1282.69 1497.73,1291.02 1497.5,1299.5C 1498.5,1299.5 1499.5,1299.5 1500.5,1299.5C 1500.5,1450.5 1500.5,1601.5 1500.5,1752.5 Z"/></g>
<g><path style="opacity:0.271" fill="#4a8a3d" d="M 1066.5,1318.5 C 1067.01,1321.39 1066.34,1323.72 1064.5,1325.5C 1063.99,1322.61 1064.66,1320.28 1066.5,1318.5 Z"/></g>
<g><path style="opacity:0.08" fill="#4a8a3c" d="M 1454.5,1320.5 C 1456.39,1322.99 1457.05,1325.99 1456.5,1329.5C 1454.61,1327.01 1453.95,1324.01 1454.5,1320.5 Z"/></g>
<g><path style="opacity:0.471" fill="#4e903e" d="M 1064.5,1325.5 C 1065.05,1329.01 1064.39,1332.01 1062.5,1334.5C 1061.95,1330.99 1062.61,1327.99 1064.5,1325.5 Z"/></g>
<g><path style="opacity:0.39" fill="#4b8c3d" d="M 1456.5,1334.5 C 1458.41,1337.68 1459.08,1341.35 1458.5,1345.5C 1456.59,1342.32 1455.92,1338.65 1456.5,1334.5 Z"/></g>
<g><path style="opacity:1" fill="#6abb45" d="M 1020.5,1325.5 C 1022.5,1467.5 1023.17,1609.83 1022.5,1752.5C 1021.83,1752.5 1021.17,1752.5 1020.5,1752.5C 1020.5,1610.17 1020.5,1467.83 1020.5,1325.5 Z"/></g>
<g><path style="opacity:1" fill="#144524" d="M 1020.5,1307.5 C 1020.5,1310.5 1020.5,1313.5 1020.5,1316.5C 1020.5,1317.17 1020.5,1317.83 1020.5,1318.5C 1018.5,1462.83 1017.83,1607.5 1018.5,1752.5C 1017.83,1752.5 1017.17,1752.5 1016.5,1752.5C 1016.17,1606.5 1016.5,1460.5 1017.5,1314.5C 1018.17,1310.83 1018.83,1307.17 1019.5,1303.5C 1020.43,1304.69 1020.76,1306.02 1020.5,1307.5 Z"/></g>
<g><path style="opacity:1" fill="#407b38" d="M 1020.5,1318.5 C 1020.5,1320.83 1020.5,1323.17 1020.5,1325.5C 1020.5,1467.83 1020.5,1610.17 1020.5,1752.5C 1019.83,1752.5 1019.17,1752.5 1018.5,1752.5C 1017.83,1607.5 1018.5,1462.83 1020.5,1318.5 Z"/></g>
<g><path style="opacity:0.07" fill="#4c8c3d" d="M 1062.5,1334.5 C 1063.08,1338.65 1062.41,1342.32 1060.5,1345.5C 1059.92,1341.35 1060.59,1337.68 1062.5,1334.5 Z"/></g>
<g><path style="opacity:0.925" fill="#4d9f45" d="M 1165.5,1342.5 C 1175.5,1342.5 1185.5,1342.5 1195.5,1342.5C 1195.5,1375.5 1195.5,1408.5 1195.5,1441.5C 1185.5,1441.5 1175.5,1441.5 1165.5,1441.5C 1165.5,1408.5 1165.5,1375.5 1165.5,1342.5 Z"/></g>
<g><path style="opacity:0.851" fill="#4d9f45" d="M 1340.5,1342.5 C 1351.5,1342.5 1362.5,1342.5 1373.5,1342.5C 1373.5,1375.5 1373.5,1408.5 1373.5,1441.5C 1362.5,1441.5 1351.5,1441.5 1340.5,1441.5C 1340.5,1408.5 1340.5,1375.5 1340.5,1342.5 Z"/></g>
<g><path style="opacity:0.086" fill="#4d8f3d" d="M 1060.5,1345.5 C 1060.5,1349.83 1060.5,1354.17 1060.5,1358.5C 1059.5,1358.5 1058.5,1358.5 1057.5,1358.5C 1057.5,1354.17 1057.5,1349.83 1057.5,1345.5C 1058.5,1345.5 1059.5,1345.5 1060.5,1345.5 Z"/></g>
<g><path style="opacity:0.931" fill="#205129" d="M 1252.5,1360.5 C 1262.83,1360.5 1273.17,1360.5 1283.5,1360.5C 1283.5,1393.17 1283.5,1425.83 1283.5,1458.5C 1273.17,1458.5 1262.83,1458.5 1252.5,1458.5C 1252.5,1425.83 1252.5,1393.17 1252.5,1360.5 Z"/></g>
<g><path style="opacity:0.396" fill="#4d8f3e" d="M 1458.5,1355.5 C 1460.5,1487.5 1461.16,1619.83 1460.5,1752.5C 1458.5,1620.5 1457.84,1488.17 1458.5,1355.5 Z"/></g>
<g><path style="opacity:0.239" fill="#4a893d" d="M 1057.5,1362.5 C 1058.16,1492.84 1057.5,1622.84 1055.5,1752.5C 1054.84,1622.16 1055.5,1492.16 1057.5,1362.5 Z"/></g>
<g><path style="opacity:0.911" fill="#4d9f45" d="M 1208.5,1421.5 C 1218.83,1421.5 1229.17,1421.5 1239.5,1421.5C 1239.5,1454.5 1239.5,1487.5 1239.5,1520.5C 1229.17,1520.5 1218.83,1520.5 1208.5,1520.5C 1208.5,1487.5 1208.5,1454.5 1208.5,1421.5 Z"/></g>
<g><path style="opacity:0.87" fill="#4d9f45" d="M 1298.5,1421.5 C 1309.5,1421.5 1320.5,1421.5 1331.5,1421.5C 1331.5,1454.5 1331.5,1487.5 1331.5,1520.5C 1320.5,1520.5 1309.5,1520.5 1298.5,1520.5C 1298.5,1487.5 1298.5,1454.5 1298.5,1421.5 Z"/></g>
<g><path style="opacity:0.933" fill="#205129" d="M 1252.5,1487.5 C 1262.83,1487.5 1273.17,1487.5 1283.5,1487.5C 1283.5,1520.17 1283.5,1552.83 1283.5,1585.5C 1273.17,1585.5 1262.83,1585.5 1252.5,1585.5C 1252.5,1552.83 1252.5,1520.17 1252.5,1487.5 Z"/></g>
</svg>
