<?xml version="1.0" encoding="UTF-8"?>
<!DOCTYPE svg PUBLIC "-//W3C//DTD SVG 1.1//EN" "http://www.w3.org/Graphics/SVG/1.1/DTD/svg11.dtd">
<svg xmlns="http://www.w3.org/2000/svg" version="1.1" width="165px" height="191px" style="shape-rendering:geometricPrecision; text-rendering:geometricPrecision; image-rendering:optimizeQuality; fill-rule:evenodd; clip-rule:evenodd" xmlns:xlink="http://www.w3.org/1999/xlink">
<g><path style="opacity:1" fill="#fefefe" d="M 154.5,157.5 C 153.883,157.611 153.383,157.944 153,158.5C 152.577,157.044 151.744,156.544 150.5,157C 146.168,162.663 141.834,168.33 137.5,174C 137.201,175.073 137.201,176.24 137.5,177.5C 100.336,178.664 63.0023,178.831 25.5,178C 11.6438,171.451 6.47715,160.617 10,145.5C 15.5481,115.284 32.7147,94.7841 61.5,84C 43.4828,71.4813 37.9828,54.648 45,33.5C 54.4255,15.5362 69.2588,7.70289 89.5,10C 115.783,18.0589 125.949,35.5589 120,62.5C 116.976,72.3893 110.809,79.556 101.5,84C 135.616,96.6187 153.282,121.119 154.5,157.5 Z M 77.5,25.5 C 101.832,26.816 110.332,39.1494 103,62.5C 94.8926,73.3874 84.3926,76.5541 71.5,72C 57.8485,62.6925 54.6818,50.5258 62,35.5C 66.2053,30.4922 71.3719,27.1589 77.5,25.5 Z M 71.5,98.5 C 106.876,95.7354 129.042,111.402 138,145.5C 138.667,150.167 138.667,154.833 138,159.5C 137.167,160.333 136.333,161.167 135.5,162C 99.8333,162.667 64.1667,162.667 28.5,162C 27.6667,161.167 26.8333,160.333 26,159.5C 25.6612,127.482 40.8279,107.148 71.5,98.5 Z"/></g>
<g><path style="opacity:1" fill="#f6f6f6" d="M 154.5,157.5 C 154.795,159.735 154.461,161.735 153.5,163.5C 152.02,161.397 150.853,161.397 150,163.5C 149.667,163.167 149.333,162.833 149,162.5C 146.149,164.86 144.316,167.86 143.5,171.5C 142.624,171.369 141.957,171.702 141.5,172.5C 141.935,174.403 141.268,176.069 139.5,177.5C 138.833,177.5 138.167,177.5 137.5,177.5C 137.201,176.24 137.201,175.073 137.5,174C 141.834,168.33 146.168,162.663 150.5,157C 151.744,156.544 152.577,157.044 153,158.5C 153.383,157.944 153.883,157.611 154.5,157.5 Z"/></g>
<g><path style="opacity:1" fill="#f0f0f0" d="M 153.5,163.5 C 153.737,164.791 153.404,165.791 152.5,166.5C 151.998,164.915 150.998,164.415 149.5,165C 147.634,167.363 145.634,169.53 143.5,171.5C 144.316,167.86 146.149,164.86 149,162.5C 149.333,162.833 149.667,163.167 150,163.5C 150.853,161.397 152.02,161.397 153.5,163.5 Z"/></g>
<g><path style="opacity:1" fill="#eaeaea" d="M 152.5,166.5 C 149.208,168.458 146.208,170.791 143.5,173.5C 143.5,172.833 143.5,172.167 143.5,171.5C 145.634,169.53 147.634,167.363 149.5,165C 150.998,164.415 151.998,164.915 152.5,166.5 Z"/></g>
<g><path style="opacity:1" fill="#e3e3e3" d="M 152.5,166.5 C 150.5,170.5 147.5,173.5 143.5,175.5C 143.5,174.833 143.5,174.167 143.5,173.5C 146.208,170.791 149.208,168.458 152.5,166.5 Z"/></g>
<g><path style="opacity:1" fill="#efefef" d="M 143.5,171.5 C 143.5,172.167 143.5,172.833 143.5,173.5C 143.5,174.167 143.5,174.833 143.5,175.5C 142.486,176.674 141.153,177.34 139.5,177.5C 141.268,176.069 141.935,174.403 141.5,172.5C 141.957,171.702 142.624,171.369 143.5,171.5 Z"/></g>
</svg>
